<svg width="1200" height="630" viewBox="0 0 1200 630" fill="none" xmlns="http://www.w3.org/2000/svg">
  <!-- Background -->
  <rect width="1200" height="630" fill="white"/>

  <!-- Grid pattern -->
  <defs>
    <pattern id="grid" width="40" height="40" patternUnits="userSpaceOnUse">
      <path d="M 40 0 L 0 0 0 40" fill="none" stroke="#e5e7eb" stroke-width="1"/>
    </pattern>
    <radialGradient id="fade" cx="50%" cy="50%" r="50%">
      <stop offset="0%" stop-color="white" stop-opacity="0"/>
      <stop offset="100%" stop-color="white" stop-opacity="1"/>
    </radialGradient>
  </defs>
  <rect width="1200" height="630" fill="url(#grid)"/>
  <rect width="1200" height="630" fill="url(#fade)"/>

  <!-- Orange glow -->
  <ellipse cx="600" cy="315" rx="300" ry="200" fill="#f97316" opacity="0.1"/>

  <!-- Logo teardrop -->
  <g transform="translate(520, 150)">
    <path
      d="M80 10C80 10 30 70 30 100C30 127.614 52.3858 150 80 150C107.614 150 130 127.614 130 100C130 70 80 10 80 10Z"
      fill="#f97316"
    />
    <circle cx="85" cy="105" r="15" fill="white" opacity="0.9"/>
    <circle cx="75" cy="117" r="5" fill="white" opacity="0.9"/>
  </g>

  <!-- Text -->
  <text x="600" y="380" font-family="Inter, system-ui, sans-serif" font-size="72" font-weight="800" fill="#0f172a" text-anchor="middle">
    ViralDrip<tspan fill="#f97316">.ai</tspan>
  </text>
  <text x="600" y="440" font-family="Inter, system-ui, sans-serif" font-size="28" font-weight="500" fill="#64748b" text-anchor="middle">
    AI-Powered Instagram DM Systems
  </text>
  <text x="600" y="500" font-family="Inter, system-ui, sans-serif" font-size="22" font-weight="400" fill="#94a3b8" text-anchor="middle">
    Turn Every DM Into Revenue
  </text>
</svg>
